<svg width="10" height="18" viewBox="0 0 10 18" fill="none" xmlns="http://www.w3.org/2000/svg">
<path d="M9.11233 8.74878C9.10148 8.57054 9.03261 8.40114 8.91668 8.26754L1.87321 0.267544C1.80426 0.188794 1.72078 0.124717 1.62756 0.0790066C1.53434 0.0332964 1.43322 0.00684695 1.32998 0.00116246C1.22674 -0.00452204 1.12342 0.0106791 1.02593 0.0458891C0.928451 0.0810991 0.838724 0.135627 0.761896 0.206351C0.685068 0.277074 0.622649 0.362594 0.578217 0.458023C0.533784 0.553452 0.508212 0.656916 0.502966 0.762466C0.497719 0.868017 0.512902 0.973582 0.547643 1.07312C0.582384 1.17266 0.636001 1.26422 0.705421 1.34254L7.27809 8.80504L0.705424 16.2675C0.636004 16.3459 0.582387 16.4374 0.547646 16.537C0.512904 16.6365 0.497722 16.7421 0.502968 16.8476C0.508215 16.9532 0.533787 17.0566 0.57822 17.1521C0.622652 17.2475 0.685071 17.333 0.761899 17.4038C0.838727 17.4745 0.928454 17.529 1.02594 17.5642C1.12342 17.5994 1.22674 17.6146 1.32998 17.6089C1.43322 17.6032 1.53435 17.5768 1.62757 17.5311C1.72078 17.4854 1.80426 17.4213 1.87321 17.3425L8.91668 9.34254C8.98669 9.26212 9.04011 9.16808 9.07373 9.06605C9.10735 8.96403 9.12048 8.85612 9.11233 8.74878Z" fill="black"/>
</svg>
