<svg width="16" height="13" viewBox="0 0 16 13" fill="none" xmlns="http://www.w3.org/2000/svg">
<path fill-rule="evenodd" clip-rule="evenodd" d="M7.51173 1.04787C7.90225 1.43839 7.90227 2.07155 7.51176 2.46208L4.72987 5.24412L15 5.24413C15.5523 5.24413 16 5.69184 16 6.24413L16 6.72608C16 7.27837 15.5523 7.72609 15 7.72609L4.83919 7.72608L7.62176 10.5083C8.01234 10.8989 8.01234 11.5321 7.62176 11.9226L7.27731 12.267C6.8882 12.6561 6.25787 12.6577 5.86679 12.2706L0.714395 7.17092C0.320441 6.78099 0.318806 6.14502 0.710751 5.75308L5.75673 0.707097C6.14725 0.316576 6.78041 0.316573 7.17094 0.707089L7.51173 1.04787Z" fill="#303030"/>
</svg>
