<svg width="9" height="18" viewBox="0 0 9 18" fill="none" xmlns="http://www.w3.org/2000/svg">
<path d="M0.00192814 9.25122C0.0127762 9.42946 0.0816486 9.59885 0.197581 9.73245L7.24105 17.7325C7.31 17.8112 7.39348 17.8753 7.4867 17.921C7.57991 17.9667 7.68104 17.9932 7.78428 17.9988C7.88752 18.0045 7.99084 17.9893 8.08832 17.9541C8.18581 17.9189 8.27553 17.8644 8.35236 17.7936C8.42919 17.7229 8.49161 17.6374 8.53604 17.542C8.58047 17.4465 8.60605 17.3431 8.61129 17.2375C8.61654 17.132 8.60136 17.0264 8.56662 16.9269C8.53187 16.8273 8.47826 16.7358 8.40884 16.6575L1.83617 9.19495L8.40884 1.73245C8.47826 1.65413 8.53188 1.56259 8.56662 1.46305C8.60136 1.3635 8.61654 1.25793 8.61129 1.15238C8.60605 1.04683 8.58048 0.943361 8.53604 0.847933C8.49161 0.752504 8.42919 0.666971 8.35236 0.596249C8.27553 0.525524 8.18581 0.471008 8.08833 0.435799C7.99084 0.400589 7.88752 0.385387 7.78428 0.391071C7.68104 0.396757 7.57992 0.423218 7.4867 0.468929C7.39348 0.514639 7.31 0.578703 7.24105 0.657453L0.197581 8.65745C0.127567 8.73788 0.0741499 8.83192 0.040531 8.93394C0.00691302 9.03597 -0.00621623 9.14388 0.00192814 9.25122Z" fill="black"/>
</svg>
