<svg width="18" height="13" viewBox="0 0 18 13" fill="none" xmlns="http://www.w3.org/2000/svg">
<path fill-rule="evenodd" clip-rule="evenodd" d="M0.000127596 2.49131C3.21233e-05 2.49648 2.67319e-05 2.50165 0.000110987 2.50681V9.9905C-3.67729e-05 9.9971 -3.72184e-05 10.0037 0.000110987 10.0104V10.5C0.000110987 11.8807 1.25929 13 2.81258 13H15.1874C16.7407 13 17.9999 11.8807 17.9999 10.5V10.0104C18 10.0037 18 9.9971 17.9999 9.9905V2.50687C18 2.50167 17.9999 2.49646 17.9999 2.49125C17.9945 1.11457 16.7374 0 15.1874 0H2.81258C1.26255 0 0.00539421 1.1146 0.000127596 2.49131ZM16.8749 9.16665V3.43426L9.31201 7.916C9.12307 8.028 8.87692 8.028 8.68798 7.916L1.1251 3.43426V9.16665L4.5166 7.5588C4.7907 7.42885 5.13142 7.52105 5.27761 7.7647C5.42381 8.00835 5.32011 8.31125 5.046 8.4412L1.1251 10.3V10.5C1.1251 11.3285 1.8806 12 2.81258 12H15.1874C16.1194 12 16.8749 11.3285 16.8749 10.5V10.3L12.954 8.4412C12.6799 8.31125 12.5762 8.00835 12.7223 7.7647C12.8685 7.52105 13.2093 7.42885 13.4834 7.5588L16.8749 9.16665ZM15.1874 1C16.0222 1 16.7155 1.53885 16.8509 2.24661L8.99999 6.89905L1.14907 2.24661C1.28453 1.53885 1.97776 1 2.81258 1H15.1874Z" fill="black"/>
</svg>
