<svg width="50" height="50" viewBox="0 0 50 50" fill="none" xmlns="http://www.w3.org/2000/svg">
<path d="M47.9732 10.8108H2.02724C1.84804 10.8108 1.67618 10.882 1.54946 11.0087C1.42275 11.1354 1.35156 11.3073 1.35156 11.4865V18.3784C1.35153 18.5341 1.40532 18.6851 1.50382 18.8058C1.60232 18.9265 1.73949 19.0094 1.8921 19.0405C3.26678 19.3197 4.50268 20.0655 5.3904 21.1516C6.27812 22.2377 6.76306 23.5973 6.76306 25C6.76306 26.4027 6.27812 27.7623 5.3904 28.8484C4.50268 29.9345 3.26678 30.6803 1.8921 30.9595C1.73949 30.9906 1.60232 31.0735 1.50382 31.1942C1.40532 31.3149 1.35153 31.4659 1.35156 31.6216V38.5135C1.35156 38.6927 1.42275 38.8646 1.54946 38.9913C1.67618 39.118 1.84804 39.1892 2.02724 39.1892H47.9732C48.1524 39.1892 48.3242 39.118 48.451 38.9913C48.5777 38.8646 48.6489 38.6927 48.6489 38.5135V31.6216C48.6489 31.4659 48.5951 31.3149 48.4966 31.1942C48.3981 31.0735 48.2609 30.9906 48.1083 30.9595C46.7336 30.6803 45.4977 29.9345 44.61 28.8484C43.7223 27.7623 43.2374 26.4027 43.2374 25C43.2374 23.5973 43.7223 22.2377 44.61 21.1516C45.4977 20.0655 46.7336 19.3197 48.1083 19.0405C48.2609 19.0094 48.3981 18.9265 48.4966 18.8058C48.5951 18.6851 48.6489 18.5341 48.6489 18.3784V11.4865C48.6489 11.3073 48.5777 11.1354 48.451 11.0087C48.3242 10.882 48.1524 10.8108 47.9732 10.8108ZM2.70291 12.1622H47.2975V17.848C45.7399 18.2884 44.3687 19.2252 43.3922 20.5161C42.4157 21.807 41.8873 23.3814 41.8873 25C41.8873 26.6186 42.4157 28.193 43.3922 29.4839C44.3687 30.7748 45.7399 31.7116 47.2975 32.152V37.8378H2.70291V32.152C4.26047 31.7116 5.63169 30.7748 6.60819 29.4839C7.58468 28.193 8.11308 26.6186 8.11308 25C8.11308 23.3814 7.58468 21.807 6.60819 20.5161C5.63169 19.2252 4.26047 18.2884 2.70291 17.848V12.1622Z" fill="#FF7A00"/>
<path d="M35.1352 35.3811C34.9559 35.3811 34.7841 35.4523 34.6574 35.579C34.5307 35.7057 34.4595 35.8776 34.4595 36.0568V38.5135C34.4595 38.6927 34.5307 38.8646 34.6574 38.9913C34.7841 39.118 34.9559 39.1892 35.1352 39.1892C35.3144 39.1892 35.4862 39.118 35.6129 38.9913C35.7396 38.8646 35.8108 38.6927 35.8108 38.5135V36.0568C35.8108 35.8776 35.7396 35.7057 35.6129 35.579C35.4862 35.4523 35.3144 35.3811 35.1352 35.3811Z" fill="#FF7A00"/>
<path d="M35.1352 29.2385C34.9559 29.2385 34.7841 29.3097 34.6574 29.4364C34.5307 29.5631 34.4595 29.735 34.4595 29.9142V32.371C34.4595 32.5502 34.5307 32.722 34.6574 32.8487C34.7841 32.9754 34.9559 33.0466 35.1352 33.0466C35.3144 33.0466 35.4862 32.9754 35.6129 32.8487C35.7396 32.722 35.8108 32.5502 35.8108 32.371V29.9142C35.8108 29.735 35.7396 29.5631 35.6129 29.4364C35.4862 29.3097 35.3144 29.2385 35.1352 29.2385Z" fill="#FF7A00"/>
<path d="M35.1352 23.0959C34.9559 23.0959 34.7841 23.1671 34.6574 23.2938C34.5307 23.4206 34.4595 23.5924 34.4595 23.7716V26.2284C34.4595 26.4076 34.5307 26.5794 34.6574 26.7062C34.7841 26.8329 34.9559 26.9041 35.1352 26.9041C35.3144 26.9041 35.4862 26.8329 35.6129 26.7062C35.7396 26.5794 35.8108 26.4076 35.8108 26.2284V23.7709C35.8107 23.5919 35.7394 23.4202 35.6127 23.2936C35.486 23.167 35.3142 23.0959 35.1352 23.0959Z" fill="#FF7A00"/>
<path d="M35.1352 16.9533C34.9559 16.9533 34.7841 17.0245 34.6574 17.1512C34.5307 17.278 34.4595 17.4498 34.4595 17.629V20.0858C34.4595 20.265 34.5307 20.4368 34.6574 20.5636C34.7841 20.6903 34.9559 20.7615 35.1352 20.7615C35.3144 20.7615 35.4862 20.6903 35.6129 20.5636C35.7396 20.4368 35.8108 20.265 35.8108 20.0858V17.629C35.8108 17.4498 35.7396 17.278 35.6129 17.1512C35.4862 17.0245 35.3144 16.9533 35.1352 16.9533Z" fill="#FF7A00"/>
<path d="M35.1352 10.8108C34.9559 10.8108 34.7841 10.882 34.6574 11.0087C34.5307 11.1354 34.4595 11.3073 34.4595 11.4865V13.9432C34.4595 14.1224 34.5307 14.2943 34.6574 14.421C34.7841 14.5477 34.9559 14.6189 35.1352 14.6189C35.3144 14.6189 35.4862 14.5477 35.6129 14.421C35.7396 14.2943 35.8108 14.1224 35.8108 13.9432V11.4865C35.8108 11.3073 35.7396 11.1354 35.6129 11.0087C35.4862 10.882 35.3144 10.8108 35.1352 10.8108Z" fill="#FF7A00"/>
<path d="M14.1414 17.877C14.0077 17.877 13.8771 17.9167 13.766 17.9909C13.655 18.0652 13.5684 18.1707 13.5172 18.2941C13.4661 18.4176 13.4527 18.5534 13.4788 18.6845C13.5049 18.8155 13.5692 18.9359 13.6636 19.0304L26.1853 31.5588C26.2476 31.6233 26.3221 31.6748 26.4046 31.7102C26.487 31.7456 26.5757 31.7642 26.6654 31.765C26.7551 31.7658 26.8441 31.7487 26.9271 31.7147C27.0102 31.6808 27.0856 31.6306 27.149 31.5671C27.2125 31.5037 27.2626 31.4283 27.2966 31.3452C27.3306 31.2622 27.3477 31.1732 27.3469 31.0835C27.3461 30.9938 27.3275 30.9051 27.2921 30.8227C27.2567 30.7402 27.2052 30.6657 27.1407 30.6034L14.6191 18.0743C14.4923 17.9478 14.3204 17.8769 14.1414 17.877Z" fill="#FF7A00"/>
<path d="M24.5819 17.5547C23.9646 17.5547 23.3612 17.7378 22.848 18.0807C22.3347 18.4236 21.9347 18.9111 21.6985 19.4813C21.4623 20.0516 21.4005 20.6791 21.5209 21.2845C21.6413 21.8899 21.9386 22.446 22.375 22.8825C22.8115 23.319 23.3676 23.6162 23.973 23.7367C24.5784 23.8571 25.2059 23.7953 25.7762 23.5591C26.3465 23.3228 26.8339 22.9228 27.1769 22.4096C27.5198 21.8963 27.7028 21.2929 27.7028 20.6757C27.7018 19.8483 27.3726 19.0551 26.7875 18.47C26.2025 17.885 25.4093 17.5558 24.5819 17.5547ZM24.5819 22.446C24.2319 22.446 23.8898 22.3422 23.5988 22.1478C23.3078 21.9533 23.081 21.677 22.9471 21.3537C22.8131 21.0304 22.778 20.6746 22.8462 20.3314C22.9145 19.9881 23.0829 19.6728 23.3304 19.4253C23.5778 19.1778 23.893 19.0092 24.2362 18.9408C24.5795 18.8725 24.9352 18.9074 25.2586 19.0413C25.582 19.1751 25.8584 19.4018 26.0529 19.6927C26.2474 19.9836 26.3513 20.3257 26.3515 20.6757C26.3511 21.145 26.1646 21.5949 25.8328 21.9268C25.5011 22.2587 25.0512 22.4454 24.5819 22.446Z" fill="#FF7A00"/>
<path d="M15.9588 26.2453C15.3416 26.2453 14.7382 26.4283 14.225 26.7712C13.7118 27.1141 13.3118 27.6015 13.0755 28.1717C12.8393 28.742 12.7774 29.3694 12.8978 29.9748C13.0182 30.5802 13.3154 31.1363 13.7518 31.5728C14.1882 32.0093 14.7442 32.3066 15.3496 32.4271C15.9549 32.5476 16.5824 32.4859 17.1527 32.2498C17.723 32.0137 18.2105 31.6138 18.5535 31.1006C18.8965 30.5875 19.0797 29.9841 19.0798 29.3669C19.0789 28.5394 18.7498 27.746 18.1647 27.1608C17.5797 26.5756 16.7864 26.2463 15.9588 26.2453ZM15.9588 31.1365C15.6088 31.1365 15.2667 31.0327 14.9757 30.8383C14.6847 30.6438 14.4579 30.3674 14.3239 30.0441C14.19 29.7207 14.155 29.3649 14.2232 29.0217C14.2915 28.6784 14.4601 28.3631 14.7075 28.1156C14.955 27.8681 15.2703 27.6996 15.6136 27.6313C15.9569 27.563 16.3127 27.5981 16.636 27.732C16.9594 27.8659 17.2358 28.0927 17.4302 28.3838C17.6246 28.6748 17.7284 29.0169 17.7284 29.3669C17.7279 29.836 17.5413 30.2858 17.2095 30.6176C16.8778 30.9493 16.428 31.1359 15.9588 31.1365Z" fill="#FF7A00"/>
</svg>
