<svg width="159" height="23" viewBox="0 0 159 23" fill="none" xmlns="http://www.w3.org/2000/svg">
<path d="M10.44 0.699999C11.74 0.699999 12.89 0.889999 13.89 1.27C14.91 1.65 15.87 2.22 16.77 2.98L14.43 5.77C13.81 5.29 13.2 4.93 12.6 4.69C12 4.45 11.36 4.33 10.68 4.33C9.28 4.33 8.17 4.92 7.35 6.1C6.55 7.28 6.15 9.1 6.15 11.56C6.15 13.98 6.55 15.78 7.35 16.96C8.17 18.12 9.3 18.7 10.74 18.7C11.5 18.7 12.19 18.56 12.81 18.28C13.43 17.98 14.1 17.56 14.82 17.02L17.01 19.84C16.23 20.62 15.28 21.26 14.16 21.76C13.06 22.26 11.84 22.51 10.5 22.51C8.58 22.51 6.91 22.09 5.49 21.25C4.07 20.41 2.96 19.17 2.16 17.53C1.38 15.87 0.99 13.88 0.99 11.56C0.99 9.3 1.39 7.35 2.19 5.71C3.01 4.07 4.13 2.83 5.55 1.99C6.99 1.13 8.62 0.699999 10.44 0.699999ZM27.0199 0.699999C29.9799 0.699999 32.2799 1.65 33.9199 3.55C35.5799 5.45 36.4099 8.13 36.4099 11.59C36.4099 13.85 36.0299 15.8 35.2699 17.44C34.5299 19.08 33.4499 20.34 32.0299 21.22C30.6299 22.08 28.9599 22.51 27.0199 22.51C25.0799 22.51 23.4099 22.08 22.0099 21.22C20.6099 20.36 19.5299 19.12 18.7699 17.5C18.0299 15.86 17.6599 13.89 17.6599 11.59C17.6599 9.35 18.0299 7.41 18.7699 5.77C19.5299 4.13 20.6099 2.88 22.0099 2.02C23.4099 1.14 25.0799 0.699999 27.0199 0.699999ZM27.0199 4.3C25.5999 4.3 24.5399 4.88 23.8399 6.04C23.1599 7.18 22.8199 9.03 22.8199 11.59C22.8199 14.15 23.1699 16.01 23.8699 17.17C24.5699 18.33 25.6199 18.91 27.0199 18.91C28.4599 18.91 29.5199 18.34 30.1999 17.2C30.8999 16.04 31.2499 14.17 31.2499 11.59C31.2499 9.01 30.8999 7.15 30.1999 6.01C29.4999 4.87 28.4399 4.3 27.0199 4.3ZM52.5274 1.21L52.0474 4.99H46.9174V22H41.9974V4.99H36.6274V1.21H52.5274ZM67.2586 1.21L66.7486 4.72H59.4286V9.7H65.8186V13.15H59.4286V18.46H67.2586V22H54.5086V1.21H67.2586ZM146.014 20.095C146.314 20.095 146.564 20.195 146.764 20.395C146.964 20.595 147.064 20.84 147.064 21.13C147.064 21.42 146.964 21.67 146.764 21.88C146.564 22.08 146.314 22.18 146.014 22.18C145.724 22.18 145.479 22.08 145.279 21.88C145.079 21.67 144.979 21.42 144.979 21.13C144.979 20.84 145.079 20.595 145.279 20.395C145.479 20.195 145.724 20.095 146.014 20.095ZM151.942 11.86C151.522 11.86 151.222 11.955 151.042 12.145C150.862 12.325 150.772 12.61 150.772 13V14.095H152.692L152.542 15.16H150.772V22H149.392V15.16H147.982V14.095H149.392V13.015C149.392 12.335 149.607 11.79 150.037 11.38C150.477 10.96 151.087 10.75 151.867 10.75C152.227 10.75 152.547 10.785 152.827 10.855C153.117 10.915 153.427 11.015 153.757 11.155L153.322 12.16C152.872 11.96 152.412 11.86 151.942 11.86ZM157.716 13.915C157.996 13.915 158.256 13.945 158.496 14.005L158.241 15.355C158.001 15.295 157.771 15.265 157.551 15.265C157.061 15.265 156.666 15.445 156.366 15.805C156.066 16.165 155.831 16.725 155.661 17.485V22H154.281V14.095H155.466L155.601 15.7C155.811 15.11 156.096 14.665 156.456 14.365C156.816 14.065 157.236 13.915 157.716 13.915Z" fill="#131313"/>
<path d="M76.9896 0.699999C78.5496 0.699999 79.8996 0.919999 81.0396 1.36C82.1996 1.8 83.2496 2.47 84.1896 3.37L81.9096 6.04C80.4896 4.88 78.9696 4.3 77.3496 4.3C76.4896 4.3 75.8096 4.48 75.3096 4.84C74.8096 5.18 74.5596 5.68 74.5596 6.34C74.5596 6.8 74.6696 7.18 74.8896 7.48C75.1096 7.76 75.4996 8.03 76.0596 8.29C76.6196 8.55 77.4596 8.86 78.5796 9.22C80.6996 9.9 82.2596 10.74 83.2596 11.74C84.2596 12.72 84.7596 14.12 84.7596 15.94C84.7596 17.24 84.4296 18.39 83.7696 19.39C83.1096 20.37 82.1596 21.14 80.9196 21.7C79.6796 22.24 78.2096 22.51 76.5096 22.51C74.8096 22.51 73.2996 22.24 71.9796 21.7C70.6796 21.16 69.5596 20.44 68.6196 19.54L71.1096 16.81C71.9096 17.49 72.7296 18 73.5696 18.34C74.4296 18.68 75.3596 18.85 76.3596 18.85C77.3796 18.85 78.1796 18.63 78.7596 18.19C79.3596 17.73 79.6596 17.1 79.6596 16.3C79.6596 15.78 79.5496 15.35 79.3296 15.01C79.1096 14.65 78.7296 14.33 78.1896 14.05C77.6496 13.77 76.8696 13.47 75.8496 13.15C73.5496 12.45 71.9096 11.59 70.9296 10.57C69.9696 9.55 69.4896 8.26 69.4896 6.7C69.4896 5.5 69.8096 4.45 70.4496 3.55C71.0896 2.63 71.9796 1.93 73.1196 1.45C74.2596 0.949999 75.5496 0.699999 76.9896 0.699999ZM98.6276 22V13.09H92.3876V22H87.4676V1.21H92.3876V9.25H98.6276V1.21H103.548V22H98.6276ZM115.848 0.699999C118.808 0.699999 121.108 1.65 122.748 3.55C124.408 5.45 125.238 8.13 125.238 11.59C125.238 13.85 124.858 15.8 124.098 17.44C123.358 19.08 122.278 20.34 120.858 21.22C119.458 22.08 117.788 22.51 115.848 22.51C113.908 22.51 112.238 22.08 110.838 21.22C109.438 20.36 108.358 19.12 107.598 17.5C106.858 15.86 106.488 13.89 106.488 11.59C106.488 9.35 106.858 7.41 107.598 5.77C108.358 4.13 109.438 2.88 110.838 2.02C112.238 1.14 113.908 0.699999 115.848 0.699999ZM115.848 4.3C114.428 4.3 113.368 4.88 112.668 6.04C111.988 7.18 111.648 9.03 111.648 11.59C111.648 14.15 111.998 16.01 112.698 17.17C113.398 18.33 114.448 18.91 115.848 18.91C117.288 18.91 118.348 18.34 119.028 17.2C119.728 16.04 120.078 14.17 120.078 11.59C120.078 9.01 119.728 7.15 119.028 6.01C118.328 4.87 117.268 4.3 115.848 4.3ZM134.91 1.21C137.65 1.21 139.78 1.78 141.3 2.92C142.82 4.06 143.58 5.75 143.58 7.99C143.58 10.33 142.83 12.1 141.33 13.3C139.85 14.48 137.86 15.07 135.36 15.07H133.11V22H128.19V1.21H134.91ZM134.94 11.53C136.1 11.53 136.98 11.26 137.58 10.72C138.2 10.16 138.51 9.25 138.51 7.99C138.51 5.81 137.29 4.72 134.85 4.72H133.11V11.53H134.94Z" fill="#FF7A00"/>
</svg>
