<svg width="226" height="31" viewBox="0 0 226 31" fill="none" xmlns="http://www.w3.org/2000/svg">
<path d="M5.77371 24.8939H20.6264V30.04H0V0H20.6264V5.14613H5.77371V24.8939Z" fill="#131313"/>
<path d="M45.4365 0V30.04H24.8102V0H45.4365ZM40.0185 5.14613H30.5839V24.8939H40.0185V5.14613Z" fill="#131313"/>
<path d="M57.4233 5.14613H49.6204V0H70.2467V5.14613H63.197V30.04H57.4233V5.14613Z" fill="#131313"/>
<path d="M80.2043 5.14613V12.5725H95.0569V17.4675H80.2043V24.8939H95.0569V30.04H74.4306V0H95.0569V5.14613H80.2043Z" fill="#131313"/>
<path d="M200.322 27.3414V30.04H197.436V27.3414H200.322Z" fill="#131313"/>
<path d="M205.301 30.04H202.414V15.02H212.728V17.5931H205.301V21.3062H212.728V23.7538H205.301V30.04Z" fill="#131313"/>
<path d="M217.706 17.5931V21.3062H222.424V17.5931H217.706ZM214.819 30.04V15.02H225.133V23.7538H221.608L225.133 30.04H222.424L218.721 23.7538H217.706V30.04H214.819Z" fill="#131313"/>
<path d="M99.2407 17.4675V0H119.867V5.14613H105.014V12.5725H119.867V30.04H99.2407V24.8939H114.449V17.4675H99.2407Z" fill="#FF7A00"/>
<path d="M129.825 30.04H124.051V0H129.825V12.5725H139.259V0H144.677V30.04H139.259V17.4675H129.825V30.04Z" fill="#FF7A00"/>
<path d="M169.487 0V30.04H148.861V0H169.487ZM164.069 5.14613H154.635V24.8939H164.069V5.14613Z" fill="#FF7A00"/>
<path d="M179.445 30.04H173.671V0H194.298V17.4675H179.445V30.04ZM179.445 5.14613V12.5725H188.88V5.14613H179.445Z" fill="#FF7A00"/>
</svg>
