<svg width="11" height="16" viewBox="0 0 11 16" fill="none" xmlns="http://www.w3.org/2000/svg">
<path fill-rule="evenodd" clip-rule="evenodd" d="M6.125 9.46325C8.59144 9.17106 10.5 7.17226 10.5 4.75C10.5 2.12665 8.26144 0 5.5 0C2.73857 0 0.5 2.12665 0.5 4.75C0.5 7.17226 2.40856 9.17106 4.875 9.46325V14.8438C4.875 15.1717 5.15481 15.4375 5.5 15.4375C5.84519 15.4375 6.125 15.1717 6.125 14.8438V9.46325ZM5.5 1.1875C3.42893 1.1875 1.75 2.78248 1.75 4.75C1.75 6.71751 3.42893 8.3125 5.5 8.3125C7.57106 8.3125 9.25 6.71751 9.25 4.75C9.25 2.78248 7.57106 1.1875 5.5 1.1875Z" fill="black"/>
</svg>
