<svg width="15" height="19" viewBox="0 0 15 19" fill="none" xmlns="http://www.w3.org/2000/svg">
<path d="M14.3089 13.1456C13.1123 11.2532 10.6184 10.5811 8.74774 11.6483C8.26274 11.9251 7.85819 12.2993 7.54933 12.7449C6.23887 11.1692 5.17797 9.29167 4.54274 7.88632C5.12888 7.84573 5.69228 7.67775 6.20047 7.38778C8.06956 6.32119 8.61683 3.91337 7.42047 2.0205C6.22365 0.128057 3.72888 -0.543636 1.85978 0.523171C0.603648 1.23999 -0.044761 2.59676 0.0695572 4.20831C0.0697845 4.21241 0.0693299 4.2163 0.0695572 4.22018C0.0697845 4.22342 0.0704663 4.22903 0.0711481 4.23335C0.0822845 4.38039 0.0975119 4.52872 0.121376 4.67964C0.127057 4.71526 0.138194 4.7483 0.152057 4.78003C0.500012 6.83117 2.11274 13.8994 8.2366 17.9429C8.55819 18.2072 8.91842 18.4222 9.30024 18.5872C9.31774 18.5969 9.33456 18.6071 9.35228 18.6168C9.39683 18.6414 9.44433 18.6552 9.49228 18.6643C10.0393 18.8731 10.6211 18.9838 11.1907 18.9838C11.8714 18.9838 12.5327 18.8301 13.0893 18.5125C14.9582 17.4461 15.5055 15.0381 14.3089 13.1456ZM12.6209 17.7724C11.8155 18.2322 10.7132 18.2342 9.75524 17.8397C2.21842 13.6526 1.00751 4.40349 0.97433 4.13403C0.883876 2.84678 1.36388 1.81366 2.32797 1.26352C3.76751 0.441989 5.70251 0.980898 6.64115 2.46527C7.57956 3.94986 7.17206 5.82611 5.73251 6.64765C5.18819 6.95791 4.55933 7.08443 3.91342 7.01383C3.90751 7.01318 3.9016 7.01404 3.89569 7.01361C3.87978 7.01253 3.8641 7.01253 3.84797 7.01297C3.83342 7.0134 3.81888 7.01404 3.80456 7.01577C3.79024 7.0175 3.77615 7.02031 3.76183 7.02354C3.74638 7.027 3.73115 7.03045 3.71615 7.0352C3.71024 7.03715 3.70433 7.03779 3.69842 7.03974C3.69024 7.04276 3.68365 7.04729 3.67592 7.05053C3.66206 7.05636 3.64865 7.06262 3.63569 7.06975C3.62206 7.07731 3.6091 7.08529 3.59638 7.09393C3.58547 7.10149 3.57524 7.10904 3.56501 7.11747C3.55297 7.1274 3.54138 7.13798 3.53047 7.14899C3.52115 7.15827 3.51251 7.16799 3.50433 7.17814C3.49478 7.18958 3.48615 7.20145 3.47797 7.21376C3.47024 7.2252 3.46342 7.23686 3.45706 7.24917C3.45024 7.26212 3.4441 7.27508 3.43865 7.28847C3.43365 7.30099 3.4291 7.31351 3.42524 7.32646C3.42069 7.34136 3.41751 7.35669 3.41478 7.37202C3.41342 7.37936 3.41069 7.38606 3.40979 7.39361C3.4091 7.39901 3.41001 7.40419 3.40956 7.40981C3.40819 7.42535 3.40842 7.44111 3.40888 7.45687C3.40933 7.47048 3.41001 7.48386 3.4116 7.49703C3.41342 7.51064 3.41638 7.52424 3.41978 7.53784C3.42342 7.55274 3.42728 7.56764 3.43251 7.58189C3.43456 7.58728 3.43501 7.59268 3.43728 7.59808C4.09569 9.22647 5.49797 11.8275 7.28319 13.7986C7.28615 13.802 7.28978 13.804 7.29297 13.8072C7.30615 13.8208 7.32092 13.8331 7.33592 13.8454C7.34547 13.853 7.35478 13.8614 7.36478 13.8683C7.37819 13.8774 7.39319 13.8847 7.40819 13.8923C7.42137 13.8994 7.4341 13.9072 7.44797 13.913C7.44933 13.9136 7.45069 13.9145 7.45228 13.9151C7.46637 13.9208 7.48069 13.9234 7.49501 13.9277C7.5091 13.9318 7.52251 13.937 7.53683 13.9398C7.56433 13.9449 7.59206 13.9475 7.61956 13.948C7.62228 13.948 7.62524 13.9488 7.62797 13.9488C7.62797 13.9488 7.62819 13.9488 7.62842 13.9488C7.63342 13.9488 7.63819 13.9477 7.64342 13.9475C7.66638 13.9467 7.68933 13.9449 7.71206 13.9411C7.7216 13.9393 7.73024 13.9363 7.73956 13.9339C7.75728 13.9296 7.77501 13.9253 7.79228 13.9188C7.80297 13.9149 7.81274 13.9097 7.82297 13.9054C7.83751 13.8987 7.85228 13.892 7.86637 13.8834C7.87819 13.8765 7.88887 13.8687 7.89978 13.8607C7.90751 13.8551 7.91615 13.8508 7.92365 13.8445C7.92706 13.8417 7.9291 13.8387 7.93251 13.8357C7.94501 13.8249 7.95615 13.813 7.96774 13.8005C7.97683 13.7908 7.98592 13.7811 7.99388 13.7705C8.00228 13.7597 8.0091 13.748 8.0166 13.7364C8.02501 13.723 8.03342 13.7092 8.04024 13.6951C8.04228 13.691 8.04501 13.688 8.0466 13.6839C8.28774 13.1361 8.69206 12.6886 9.21615 12.3895C10.6559 11.5678 12.5914 12.1071 13.5296 13.5911C14.468 15.0748 14.0602 16.951 12.6209 17.7724Z" fill="black"/>
</svg>
