<svg width="68" height="19" viewBox="0 0 68 19" fill="none" xmlns="http://www.w3.org/2000/svg">
<path opacity="0.4" fill-rule="evenodd" clip-rule="evenodd" d="M38.4077 5.96367C38.7333 5.96367 38.9923 6.05493 39.1847 6.23747C39.3771 6.42 39.4733 6.6642 39.4733 6.97007V9.54527C39.4733 10.0386 39.4363 10.416 39.3623 10.6775C39.2883 10.9389 39.1551 11.1437 38.9627 11.2917C38.7703 11.4397 38.4817 11.5679 38.0969 11.6765C37.7121 11.7751 37.2854 11.8516 36.8167 11.9059C36.348 11.9601 35.9115 11.9873 35.5069 11.9873C34.3722 11.9873 33.3881 11.7727 32.5543 11.3435C31.7206 10.9143 31.0817 10.2976 30.6377 9.49347C30.1937 8.68933 29.9717 7.73474 29.9717 6.62967C29.9717 5.54433 30.1937 4.5996 30.6377 3.79547C31.0817 2.99133 31.7132 2.3722 32.5321 1.93807C33.3511 1.50393 34.3081 1.28687 35.4033 1.28687C36.094 1.28687 36.7131 1.36826 37.2607 1.53107C37.8083 1.69387 38.3189 1.943 38.7925 2.27847C38.9603 2.39687 39.0811 2.52513 39.1551 2.66327C39.2291 2.8014 39.2661 2.979 39.2661 3.19607C39.2661 3.50193 39.1823 3.76093 39.0145 3.97307C38.8468 4.1852 38.6445 4.29127 38.4077 4.29127C38.2498 4.29127 38.1142 4.26907 38.0007 4.22467C37.8872 4.18026 37.7417 4.1038 37.5641 3.99527C37.199 3.79793 36.8562 3.65487 36.5355 3.56607C36.2148 3.47726 35.8671 3.43287 35.4921 3.43287C34.5548 3.43287 33.8567 3.69433 33.3979 4.21727C32.9391 4.7402 32.7097 5.54433 32.7097 6.62967C32.7097 7.7446 32.949 8.57093 33.4275 9.10867C33.9061 9.6464 34.6386 9.91527 35.6253 9.91527C36.0989 9.91527 36.5676 9.86593 37.0313 9.76727V7.82847H35.9657C35.6401 7.82847 35.3885 7.74707 35.2109 7.58427C35.0333 7.42146 34.9445 7.19207 34.9445 6.89607C34.9445 6.60006 35.0333 6.37067 35.2109 6.20787C35.3885 6.04506 35.6401 5.96367 35.9657 5.96367H38.4077ZM29.2871 10.7293C29.2871 10.5517 29.2427 10.3691 29.1539 10.1817L25.2467 2.16007C25.1185 1.89366 24.9261 1.68893 24.6695 1.54587C24.413 1.4028 24.1367 1.33127 23.8407 1.33127C23.5349 1.33127 23.2561 1.4028 23.0045 1.54587C22.7529 1.68893 22.563 1.89366 22.4347 2.16007L18.5275 10.1817C18.4387 10.3691 18.3943 10.5517 18.3943 10.7293C18.3943 11.0549 18.53 11.3311 18.8013 11.5581C19.0727 11.785 19.3761 11.8985 19.7115 11.8985C19.9385 11.8985 20.1481 11.8393 20.3405 11.7209C20.5329 11.6025 20.6834 11.4249 20.7919 11.1881L21.4727 9.69327H26.2679L26.9339 11.1881C27.0425 11.4249 27.1905 11.6025 27.3779 11.7209C27.5654 11.8393 27.7726 11.8985 27.9995 11.8985C28.335 11.8985 28.6335 11.785 28.8949 11.5581C29.1564 11.3311 29.2871 11.0549 29.2871 10.7293ZM25.3503 7.65087H22.3903L23.8703 4.35047L25.3503 7.65087ZM51.4651 10.7293C51.4651 10.5517 51.4207 10.3691 51.3319 10.1817L47.4247 2.16007C47.2964 1.89366 47.104 1.68893 46.8475 1.54587C46.591 1.4028 46.3147 1.33127 46.0187 1.33127C45.7128 1.33127 45.4341 1.4028 45.1825 1.54587C44.9309 1.68893 44.741 1.89366 44.6127 2.16007L40.7055 10.1817C40.6167 10.3691 40.5723 10.5517 40.5723 10.7293C40.5723 11.0549 40.708 11.3311 40.9793 11.5581C41.2506 11.785 41.554 11.8985 41.8895 11.8985C42.1164 11.8985 42.3261 11.8393 42.5185 11.7209C42.7109 11.6025 42.8614 11.4249 42.9699 11.1881L43.6507 9.69327H48.4459L49.1119 11.1881C49.2204 11.4249 49.3684 11.6025 49.5559 11.7209C49.7434 11.8393 49.9506 11.8985 50.1775 11.8985C50.513 11.8985 50.8114 11.785 51.0729 11.5581C51.3344 11.3311 51.4651 11.0549 51.4651 10.7293ZM44.5683 7.65087H47.5283L46.0483 4.35047L44.5683 7.65087ZM53.0599 11.5803C53.3016 11.822 53.6297 11.9429 54.0441 11.9429C54.4684 11.9429 54.8038 11.822 55.0505 11.5803C55.2972 11.3385 55.4205 11.0105 55.4205 10.5961V2.67807C55.4205 2.27353 55.2972 1.9504 55.0505 1.70867C54.8038 1.46693 54.4684 1.34607 54.0441 1.34607C53.6297 1.34607 53.3016 1.46693 53.0599 1.70867C52.8182 1.9504 52.6973 2.27353 52.6973 2.67807V10.5961C52.6973 11.0105 52.8182 11.3385 53.0599 11.5803ZM67.3975 10.1817C67.4863 10.3691 67.5307 10.5517 67.5307 10.7293C67.5307 11.0549 67.4 11.3311 67.1385 11.5581C66.877 11.785 66.5786 11.8985 66.2431 11.8985C66.0162 11.8985 65.809 11.8393 65.6215 11.7209C65.434 11.6025 65.286 11.4249 65.1775 11.1881L64.5115 9.69327H59.7163L59.0355 11.1881C58.927 11.4249 58.7765 11.6025 58.5841 11.7209C58.3917 11.8393 58.182 11.8985 57.9551 11.8985C57.6196 11.8985 57.3162 11.785 57.0449 11.5581C56.7736 11.3311 56.6379 11.0549 56.6379 10.7293C56.6379 10.5517 56.6823 10.3691 56.7711 10.1817L60.6783 2.16007C60.8066 1.89366 60.9965 1.68893 61.2481 1.54587C61.4997 1.4028 61.7784 1.33127 62.0843 1.33127C62.3803 1.33127 62.6566 1.4028 62.9131 1.54587C63.1696 1.68893 63.362 1.89366 63.4903 2.16007L67.3975 10.1817ZM62.1139 4.35047L63.5939 7.65087H60.6339L62.1139 4.35047Z" fill="white"/>
<path opacity="0.4" fill-rule="evenodd" clip-rule="evenodd" d="M24.868 16.8537C24.9352 16.8537 24.9886 16.8723 25.0282 16.9095C25.0678 16.9467 25.0876 16.9977 25.0876 17.0625V17.7645C25.0876 17.8605 25.0798 17.9349 25.0642 17.9877C25.0486 18.0405 25.0216 18.0825 24.9832 18.1137C24.9448 18.1449 24.8872 18.1713 24.8104 18.1929C24.7168 18.2217 24.6094 18.2445 24.4882 18.2613C24.367 18.2781 24.2524 18.2865 24.1444 18.2865C23.8756 18.2865 23.6428 18.2343 23.446 18.1299C23.2492 18.0255 23.098 17.8755 22.9924 17.6799C22.8868 17.4843 22.834 17.2521 22.834 16.9833C22.834 16.7193 22.8862 16.4895 22.9906 16.2939C23.095 16.0983 23.2444 15.9477 23.4388 15.8421C23.6332 15.7365 23.86 15.6837 24.1192 15.6837C24.4528 15.6837 24.7288 15.7701 24.9472 15.9429C24.9832 15.9717 25.0084 16.0005 25.0228 16.0293C25.0372 16.0581 25.0444 16.0941 25.0444 16.1373C25.0444 16.1997 25.027 16.2531 24.9922 16.2975C24.9574 16.3419 24.916 16.3641 24.868 16.3641C24.8368 16.3641 24.8086 16.3593 24.7834 16.3497C24.7582 16.3401 24.7276 16.3245 24.6916 16.3029C24.5908 16.2405 24.4984 16.1961 24.4144 16.1697C24.3304 16.1433 24.238 16.1301 24.1372 16.1301C23.6476 16.1301 23.4028 16.4145 23.4028 16.9833C23.4028 17.2761 23.4664 17.4945 23.5936 17.6385C23.7208 17.7825 23.9128 17.8545 24.1696 17.8545C24.3088 17.8545 24.4468 17.8365 24.5836 17.8005V17.2425H24.2524C24.1828 17.2425 24.1288 17.2257 24.0904 17.1921C24.052 17.1585 24.0328 17.1105 24.0328 17.0481C24.0328 16.9857 24.052 16.9377 24.0904 16.9041C24.1288 16.8705 24.1828 16.8537 24.2524 16.8537H24.868ZM21.8044 18.0273C21.8044 17.9937 21.7948 17.9553 21.7756 17.9121L20.8036 15.8709C20.7748 15.8157 20.734 15.7725 20.6812 15.7413C20.6284 15.7101 20.5708 15.6945 20.5084 15.6945C20.4484 15.6945 20.392 15.7095 20.3392 15.7395C20.2864 15.7695 20.2468 15.8133 20.2204 15.8709L19.2484 17.9121C19.2292 17.9553 19.2196 17.9937 19.2196 18.0273C19.2196 18.0945 19.2472 18.1515 19.3024 18.1983C19.3576 18.2451 19.42 18.2685 19.4896 18.2685C19.5376 18.2685 19.5814 18.2559 19.621 18.2307C19.6606 18.2055 19.6912 18.1677 19.7128 18.1173L19.9036 17.6925H21.124L21.3148 18.1173C21.3364 18.1677 21.3676 18.2055 21.4084 18.2307C21.4492 18.2559 21.4924 18.2685 21.538 18.2685C21.6076 18.2685 21.6694 18.2451 21.7234 18.1983C21.7774 18.1515 21.8044 18.0945 21.8044 18.0273ZM20.9332 17.2677H20.0944L20.5156 16.3317L20.9332 17.2677ZM26.4952 18.1857C26.5408 18.2313 26.6056 18.2541 26.6896 18.2541H27.9641C28.1417 18.2541 28.2305 18.1821 28.2305 18.0381C28.2305 17.8917 28.1417 17.8185 27.9641 17.8185H26.974V17.1813H27.8921C28.0697 17.1813 28.1585 17.1093 28.1585 16.9653C28.1585 16.8189 28.0697 16.7457 27.8921 16.7457H26.974V16.1517H27.9641C28.1417 16.1517 28.2305 16.0785 28.2305 15.9321C28.2305 15.7881 28.1417 15.7161 27.9641 15.7161H26.6896C26.6056 15.7161 26.5408 15.7389 26.4952 15.7845C26.4496 15.8301 26.4268 15.8949 26.4268 15.9789V17.9913C26.4268 18.0753 26.4496 18.1401 26.4952 18.1857ZM31.3624 15.6981C31.4416 15.6981 31.5058 15.7239 31.555 15.7755C31.6042 15.8271 31.6288 15.8937 31.6288 15.9753V17.9949C31.6288 18.0789 31.6042 18.1467 31.555 18.1983C31.5058 18.2499 31.4416 18.2757 31.3624 18.2757C31.276 18.2757 31.2064 18.2445 31.1536 18.1821L29.9476 16.6377V17.9949C29.9476 18.0789 29.9242 18.1467 29.8774 18.1983C29.8306 18.2499 29.7676 18.2757 29.6884 18.2757C29.6092 18.2757 29.5456 18.2499 29.4976 18.1983C29.4496 18.1467 29.4256 18.0789 29.4256 17.9949V15.9753C29.4256 15.8937 29.4502 15.8271 29.4994 15.7755C29.5486 15.7239 29.6128 15.6981 29.692 15.6981C29.7808 15.6981 29.8492 15.7293 29.8972 15.7917L31.1032 17.3253V15.9753C31.1032 15.8937 31.1272 15.8271 31.1752 15.7755C31.2232 15.7239 31.2856 15.6981 31.3624 15.6981ZM33.508 18.1281C33.6952 18.2337 33.9136 18.2865 34.1632 18.2865C34.4776 18.2865 34.7488 18.2001 34.9768 18.0273C35.0104 18.0009 35.035 17.9727 35.0506 17.9427C35.0662 17.9127 35.074 17.8761 35.074 17.8329C35.074 17.7705 35.0566 17.7171 35.0218 17.6727C34.987 17.6283 34.9444 17.6061 34.894 17.6061C34.8628 17.6061 34.8352 17.6103 34.8112 17.6187C34.7872 17.6271 34.7572 17.6421 34.7212 17.6637C34.6156 17.7261 34.5232 17.7711 34.444 17.7987C34.3648 17.8263 34.2808 17.8401 34.192 17.8401C33.7288 17.8401 33.4972 17.5545 33.4972 16.9833C33.4972 16.7001 33.5554 16.4871 33.6718 16.3443C33.7882 16.2015 33.9616 16.1301 34.192 16.1301C34.2856 16.1301 34.3732 16.1439 34.4548 16.1715C34.5364 16.1991 34.6252 16.2441 34.7212 16.3065C34.7524 16.3281 34.7806 16.3431 34.8058 16.3515C34.831 16.3599 34.8604 16.3641 34.894 16.3641C34.9444 16.3641 34.987 16.3419 35.0218 16.2975C35.0566 16.2531 35.074 16.1997 35.074 16.1373C35.074 16.0941 35.0668 16.0581 35.0524 16.0293C35.038 16.0005 35.0128 15.9717 34.9768 15.9429C34.7488 15.7701 34.4776 15.6837 34.1632 15.6837C33.9136 15.6837 33.6952 15.7365 33.508 15.8421C33.3208 15.9477 33.1768 16.0983 33.076 16.2939C32.9752 16.4895 32.9248 16.7193 32.9248 16.9833C32.9248 17.2473 32.9752 17.4777 33.076 17.6745C33.1768 17.8713 33.3208 18.0225 33.508 18.1281ZM36.5644 18.2541C36.4804 18.2541 36.4156 18.2313 36.37 18.1857C36.3244 18.1401 36.3016 18.0753 36.3016 17.9913V15.9789C36.3016 15.8949 36.3244 15.8301 36.37 15.7845C36.4156 15.7389 36.4804 15.7161 36.5644 15.7161H37.8388C38.0164 15.7161 38.1052 15.7881 38.1052 15.9321C38.1052 16.0785 38.0164 16.1517 37.8388 16.1517H36.8488V16.7457H37.7668C37.9444 16.7457 38.0332 16.8189 38.0332 16.9653C38.0332 17.1093 37.9444 17.1813 37.7668 17.1813H36.8488V17.8185H37.8388C38.0164 17.8185 38.1052 17.8917 38.1052 18.0381C38.1052 18.1821 38.0164 18.2541 37.8388 18.2541H36.5644ZM44.4142 15.7359C44.3698 15.7659 44.3368 15.8097 44.3152 15.8673L43.7428 17.4909L43.192 15.8781C43.1704 15.8181 43.1368 15.7725 43.0912 15.7413C43.0456 15.7101 42.9952 15.6945 42.94 15.6945C42.8872 15.6945 42.8374 15.7101 42.7906 15.7413C42.7438 15.7725 42.7096 15.8169 42.688 15.8745L42.112 17.4621L41.5576 15.8673C41.536 15.8097 41.5018 15.7659 41.455 15.7359C41.4082 15.7059 41.356 15.6909 41.2984 15.6909C41.2264 15.6909 41.164 15.7131 41.1112 15.7575C41.0584 15.8019 41.032 15.8613 41.032 15.9357C41.032 15.9717 41.0392 16.0101 41.0536 16.0509L41.8024 18.0993C41.824 18.1569 41.8618 18.2019 41.9158 18.2343C41.9698 18.2667 42.028 18.2829 42.0904 18.2829C42.1552 18.2829 42.214 18.2667 42.2668 18.2343C42.3196 18.2019 42.3568 18.1569 42.3784 18.0993L42.9292 16.5837L43.4656 18.0993C43.4872 18.1569 43.5244 18.2019 43.5772 18.2343C43.63 18.2667 43.6888 18.2829 43.7536 18.2829C43.8184 18.2829 43.8778 18.2667 43.9318 18.2343C43.9858 18.2019 44.0236 18.1569 44.0452 18.0993L44.794 16.0509C44.8084 16.0077 44.8156 15.9681 44.8156 15.9321C44.8156 15.8577 44.791 15.7989 44.7418 15.7557C44.6926 15.7125 44.6332 15.6909 44.5636 15.6909C44.5084 15.6909 44.4586 15.7059 44.4142 15.7359ZM46.3096 18.2541C46.2256 18.2541 46.1608 18.2313 46.1152 18.1857C46.0696 18.1401 46.0468 18.0753 46.0468 17.9913V15.9789C46.0468 15.8949 46.0696 15.8301 46.1152 15.7845C46.1608 15.7389 46.2256 15.7161 46.3096 15.7161H47.5841C47.7617 15.7161 47.8505 15.7881 47.8505 15.9321C47.8505 16.0785 47.7617 16.1517 47.5841 16.1517H46.594V16.7457H47.5121C47.6897 16.7457 47.7785 16.8189 47.7785 16.9653C47.7785 17.1093 47.6897 17.1813 47.5121 17.1813H46.594V17.8185H47.5841C47.7617 17.8185 47.8505 17.8917 47.8505 18.0381C47.8505 18.1821 47.7617 18.2541 47.5841 18.2541H46.3096ZM51.0166 17.1651C50.9362 17.0583 50.8228 16.9833 50.6764 16.9401C50.8012 16.8945 50.899 16.8219 50.9698 16.7223C51.0406 16.6227 51.076 16.5069 51.076 16.3749C51.076 16.1709 50.9986 16.0101 50.8438 15.8925C50.689 15.7749 50.4796 15.7161 50.2156 15.7161H49.3084C49.2244 15.7161 49.1596 15.7389 49.114 15.7845C49.0684 15.8301 49.0456 15.8949 49.0456 15.9789V17.9913C49.0456 18.0753 49.0684 18.1401 49.114 18.1857C49.1596 18.2313 49.2244 18.2541 49.3084 18.2541H50.2516C50.5276 18.2541 50.7442 18.1917 50.9014 18.0669C51.0586 17.9421 51.1372 17.7729 51.1372 17.5593C51.1372 17.4033 51.097 17.2719 51.0166 17.1651ZM49.5928 16.7493H50.122C50.266 16.7493 50.3722 16.7247 50.4406 16.6755C50.509 16.6263 50.5432 16.5513 50.5432 16.4505C50.5432 16.3449 50.509 16.2675 50.4406 16.2183C50.3722 16.1691 50.266 16.1445 50.122 16.1445H49.5928V16.7493ZM50.5108 17.7501C50.4436 17.8005 50.3356 17.8257 50.1868 17.8257H49.5928V17.1777H50.1868C50.3356 17.1777 50.4436 17.2041 50.5108 17.2569C50.578 17.3097 50.6116 17.3925 50.6116 17.5053C50.6116 17.6181 50.578 17.6997 50.5108 17.7501Z" fill="white"/>
<path opacity="0.4" fill-rule="evenodd" clip-rule="evenodd" d="M0.121492 2.75992C-0.0798209 2.20682 -0.216449 0.688468 1.29559 0.138129C2.80764 -0.412209 3.67271 0.821583 3.88026 1.39184C4.23439 2.3648 4.62253 3.4645 5.00247 4.54099C5.30335 5.39347 5.5991 6.2314 5.86875 6.9803L6.97245 3.9479C7.13138 3.51124 7.95315 2.38665 9.46833 2.93813C10.9835 3.48961 10.8951 4.86577 10.7312 5.31598C10.2756 6.56766 9.83611 7.68762 9.40676 8.7816C9.31639 9.01188 9.22647 9.241 9.13695 9.46996L9.1395 9.46629L9.12342 9.50456C9.03804 9.723 8.95302 9.94134 8.86831 10.1604C8.8038 10.3273 8.73712 10.4945 8.66888 10.6625C8.53402 11.0284 8.41617 11.3673 8.3075 11.6798C7.78261 13.1892 7.4721 14.0821 6.4943 14.4215C4.98226 14.9718 4.12776 13.7671 3.91041 13.1699L0.121492 2.75992ZM16.8156 0.138129C15.308 -0.410575 14.4322 0.838736 14.2309 1.39184L10.442 11.8018C10.2246 12.399 10.1093 13.8728 11.6169 14.4215C13.1244 14.9702 13.9834 13.7671 14.2007 13.1699L17.9897 2.75992C18.1972 2.18966 18.3231 0.686833 16.8156 0.138129Z" fill="white"/>
</svg>
