<svg width="48" height="30" viewBox="0 0 48 30" fill="none" xmlns="http://www.w3.org/2000/svg">
<path d="M46.9732 0.810804H1.02724C0.848038 0.810804 0.676177 0.88199 0.549463 1.00871C0.42275 1.13542 0.351563 1.30728 0.351563 1.48648V8.37837C0.351531 8.53414 0.405317 8.68513 0.503818 8.80579C0.60232 8.92646 0.739486 9.00938 0.892103 9.04053C2.26678 9.31968 3.50268 10.0655 4.3904 11.1516C5.27812 12.2377 5.76306 13.5973 5.76306 15C5.76306 16.4027 5.27812 17.7623 4.3904 18.8484C3.50268 19.9345 2.26678 20.6803 0.892103 20.9595C0.739486 20.9906 0.60232 21.0735 0.503818 21.1942C0.405317 21.3149 0.351531 21.4659 0.351563 21.6216V28.5135C0.351563 28.6927 0.42275 28.8646 0.549463 28.9913C0.676177 29.118 0.848038 29.1892 1.02724 29.1892H46.9732C47.1524 29.1892 47.3242 29.118 47.451 28.9913C47.5777 28.8646 47.6489 28.6927 47.6489 28.5135V21.6216C47.6489 21.4659 47.5951 21.3149 47.4966 21.1942C47.3981 21.0735 47.2609 20.9906 47.1083 20.9595C45.7336 20.6803 44.4977 19.9345 43.61 18.8484C42.7223 17.7623 42.2374 16.4027 42.2374 15C42.2374 13.5973 42.7223 12.2377 43.61 11.1516C44.4977 10.0655 45.7336 9.31968 47.1083 9.04053C47.2609 9.00938 47.3981 8.92646 47.4966 8.80579C47.5951 8.68513 47.6489 8.53414 47.6489 8.37837V1.48648C47.6489 1.30728 47.5777 1.13542 47.451 1.00871C47.3242 0.88199 47.1524 0.810804 46.9732 0.810804ZM1.70291 2.16216H46.2975V7.84797C44.7399 8.28838 43.3687 9.2252 42.3922 10.5161C41.4157 11.807 40.8873 13.3814 40.8873 15C40.8873 16.6186 41.4157 18.193 42.3922 19.4839C43.3687 20.7748 44.7399 21.7116 46.2975 22.152V27.8378H1.70291V22.152C3.26047 21.7116 4.63169 20.7748 5.60819 19.4839C6.58468 18.193 7.11308 16.6186 7.11308 15C7.11308 13.3814 6.58468 11.807 5.60819 10.5161C4.63169 9.2252 3.26047 8.28838 1.70291 7.84797V2.16216Z" fill="#FF7A00"/>
</svg>
