<svg width="30" height="40" viewBox="0 0 30 40" fill="none" xmlns="http://www.w3.org/2000/svg">
<path d="M26.3654 17.2717H24.5479V9.9995C24.5479 4.48514 20.0607 0 14.5484 0C9.03598 0 4.54686 4.48514 4.54686 9.9995V17.2717H2.72732C1.22431 17.2717 0 18.496 0 19.999V37.2727C0 38.7757 1.22431 40 2.72732 40H26.3654C27.8684 40 29.0927 38.7757 29.0927 37.2727V19.999C29.0927 18.496 27.8684 17.2717 26.3654 17.2717ZM6.36441 9.9995C6.36441 5.48848 10.0353 1.81755 14.5464 1.81755C19.0574 1.81755 22.7283 5.48848 22.7283 9.9995V17.2717H6.36441V9.9995ZM27.2732 37.2727C27.2732 37.7743 26.8651 38.1825 26.3634 38.1825H2.72732C2.22565 38.1825 1.81755 37.7743 1.81755 37.2727V19.999C1.81755 19.4973 2.22565 19.0892 2.72732 19.0892H26.3654C26.8671 19.0892 27.2752 19.4973 27.2752 19.999V37.2727H27.2732Z" fill="#FF7A00"/>
</svg>
