<svg width="33" height="40" viewBox="0 0 33 40" fill="none" xmlns="http://www.w3.org/2000/svg">
<path d="M8.81716 14.7213C9.06809 14.4807 11.8684 11.819 13.389 9.79898C14.5132 8.30023 8.48092 0.300179 6.67426 1.32775C2.79495 3.53328 0.426217 9.00199 1.55036 13.383C3.95423 22.7314 9.60507 31.0873 17.3838 36.8067C21.0322 39.4884 26.9942 39.338 30.4971 36.5661C32.1231 35.2828 26.9591 26.6963 25.1374 27.1825C22.5629 27.8693 18.8441 29.5836 18.8341 29.5886C18.538 29.7239 18.1968 29.6136 18.0311 29.348C18.0311 29.348 9.52979 16.6913 8.71679 15.5735C8.52107 15.3028 8.56624 14.9318 8.81716 14.7213ZM14.4028 10.5609C13.108 12.2852 10.9601 14.4156 10.0718 15.2727C13.1532 19.5183 16.0237 23.764 18.814 28.2051C19.9432 27.7039 22.7335 26.5109 24.8111 25.9545C27.8473 25.1424 34.1556 35.2879 31.285 37.5636C27.3355 40.6814 20.7361 40.8468 16.631 37.8292C8.60639 31.9294 2.79997 23.3379 0.320828 13.6988C-0.948855 8.7664 1.67081 2.71623 6.04695 0.224991C9.22868 -1.58454 16.2998 8.03957 14.4028 10.5609Z" fill="#FF7A00"/>
</svg>
