<svg width="44" height="26" viewBox="0 0 44 26" fill="none" xmlns="http://www.w3.org/2000/svg">
<path fill-rule="evenodd" clip-rule="evenodd" d="M28.1406 0C29.3863 0 30.3906 1.05561 30.3906 2.32812V2.4375H35.7344C36.4285 2.4375 37.0003 2.87928 37.5312 3.45312C38.0622 4.02697 38.5619 4.78658 39.0469 5.60938C40.0169 7.25494 40.8964 9.17795 41.4844 10.375C41.497 10.4001 41.5074 10.4263 41.5156 10.4531H42.375C43.2759 10.4531 44 11.206 44 12.1093V20.2188C44 21.1222 43.2869 21.9062 42.375 21.9062H38.4531C38.2106 24.1947 36.3123 26 33.9844 26C31.6564 26 29.7581 24.1947 29.5156 21.9062H15.0469C14.802 24.1968 12.8904 26 10.5625 26C8.25098 26 6.33825 24.1968 6.09374 21.9062H2.25C0.997211 21.9062 0 20.8354 0 19.5782V2.32812C0 1.05561 1.00433 0 2.25 0H28.1406ZM28.1406 1H2.25C1.56042 1 0.999992 1.57249 0.999992 2.32812V19.5782C0.999992 20.3077 1.56754 20.9062 2.25 20.9062H6.09375C6.33125 18.6083 8.24574 16.7812 10.5625 16.7812C12.8979 16.7812 14.7929 18.6059 15.0312 20.9062H29.3906V2.32812C29.3906 1.57249 28.8302 1 28.1406 1ZM35.7344 3.4375H30.3906V10.4531H40.4062C39.8159 9.23409 39.0389 7.56944 38.1875 6.125C37.7225 5.33614 37.2443 4.62419 36.7969 4.14062C36.3495 3.65705 35.9475 3.4375 35.7344 3.4375ZM42.375 11.4531H30.3906V18.6407C31.2074 17.5183 32.5071 16.7812 33.9844 16.7812C36.4055 16.8454 38.2747 18.32 38.4375 20.9062H42.375C42.7129 20.9062 43 20.5984 43 20.2188V12.1093C43 11.7297 42.724 11.4531 42.375 11.4531ZM33.9844 17.7812C32.0437 17.7812 30.4844 19.3895 30.4844 21.4062C30.4844 23.3999 32.0437 25 33.9844 25C35.925 25 37.4687 23.3999 37.4687 21.4062C37.3281 18.9984 35.7994 17.8016 33.9844 17.7812ZM10.5625 17.7812C8.61467 17.7453 7.11103 19.7439 7.0625 21.4062C7.0625 23.3969 8.64454 25 10.5625 25C12.5032 25 14.0625 23.3969 14.0625 21.4062C14.1184 19.095 12.2719 17.8328 10.5625 17.7812Z" fill="#FF7A00"/>
</svg>
